<?xml version="1.0" encoding="utf-8"?>
<!-- Generator: Adobe Illustrator 25.0.0, SVG Export Plug-In . SVG Version: 6.00 Build 0)  -->
<svg version="1.1" id="Layer_1" xmlns="http://www.w3.org/2000/svg" xmlns:xlink="http://www.w3.org/1999/xlink" x="0px"
	 y="0px" width="250px" height="400px" style="enable-background:new 0 0 2000 2000;" xml:space="preserve">
<style type="text/css">
	.st0{fill:#463849;}
	.st1{fill:#A6AE1B;}
	.st2{fill:#FFFFFF;}
	.st3{opacity:0.4;fill:#FFFFFF;}
	.st4{fill:#5F740D;}
</style>
<g>
	<g>
		<path class="st0" d="M461.74,968.25c-22.52-25.18-55.21-38.56-94.56-38.56h-49.82V843.3h-56.36v313.39h56.36v-47.82
			c17.31,27.3,44.8,52.12,79.06,52.12c62.71,0,95.52-55.15,95.52-109.63C491.95,1019.64,481.24,990.1,461.74,968.25z M418.7,1099.91
			c-9.75,13.5-23.73,20.64-40.32,20.64c-34.63,0-61.02-45.46-61.02-64.05V951.3h21.07c62.11,0,94.56,49.82,94.56,99.1
			C432.99,1069.64,427.97,1087.26,418.7,1099.91z"/>
		<rect x="540.41" y="929.68" class="st0" width="56.36" height="226.98"/>
		<path class="st0" d="M1042.56,929.69l14.84,19.19c12.3,16.04,11.11,36.52-3,51.01l-52.34,54.48V843.3h-55.95v313.38h55.95v-71.88
			l27.39-27.38c15.23,0.54,26.14,9.42,32.72,16.99c15.99,18.39,23.1,47.23,18.54,75.25l-1.14,7.02h74.32l-1.54-7.3
			c-11.56-54.89-47.53-113.97-99.19-113.97c-0.82,0-1.64,0.02-2.48,0.05l103.71-105.78H1042.56z"/>
		<rect x="1187.22" y="929.68" class="st0" width="56.36" height="226.98"/>
		<path class="st0" d="M1565.8,947.53c17.99,24,22.52,58.76,11.24,86.55l-32.5,82.32l-60.62-186.72h-81.95l14.34,18.82
			c17.64,22.45,22.3,55.09,11.59,81.28l-34.22,86.63l-60.62-186.73h-60.69l80.82,227h47.45l55.3-136.05l48.53,136.05h47.02
			l92.62-227h-90.55L1565.8,947.53z"/>
		<rect x="1675.91" y="929.68" class="st0" width="56.36" height="226.98"/>
		<circle class="st1" cx="1704.09" cy="873.91" r="34.9"/>
		<circle class="st1" cx="1217.43" cy="873.91" r="34.9"/>
		<circle class="st1" cx="571.9" cy="873.91" r="34.9"/>
	</g>
	<g>
		<circle class="st0" cx="776.35" cy="1021.15" r="139.81"/>
		<circle class="st2" cx="778.06" cy="1026.1" r="98.06"/>
		<circle class="st1" cx="776.35" cy="1021.15" r="101.87"/>
		<path class="st1" d="M776.35,1142.51c-66.92,0-121.36-54.44-121.36-121.36c0-66.92,54.44-121.36,121.36-121.36
			s121.36,54.44,121.36,121.36C897.7,1088.07,843.26,1142.51,776.35,1142.51z M776.35,925.2c-52.91,0-95.95,43.04-95.95,95.95
			c0,52.91,43.04,95.95,95.95,95.95c52.91,0,95.95-43.05,95.95-95.95C872.3,968.24,829.25,925.2,776.35,925.2z"/>
		<polygon class="st3" points="809.93,1028.34 831.77,1030.83 810.52,1025.79 864.64,1027.83 810.83,1021.71 832.6,1019.92 
			810.64,1019.09 864.26,1010.54 810.35,1014.97 831.28,1008.99 809.6,1012.44 860.49,993.55 808.31,1008.47 827.8,998.4 
			807.35,1006 853.42,977.55 805.1,1002.49 822.34,988.75 803.86,1000.17 843.47,963.41 801.19,997.1 815.25,980.51 799.04,995.55 
			830.96,951.45 795.99,992.71 806.53,973.68 793.67,991.45 816.25,942.1 789.94,989.59 796.62,968.67 787.57,988.45 800.05,935.83 
			783.54,987.57 786.02,965.73 780.98,986.97 783.02,932.86 776.9,986.66 775.11,964.9 774.29,986.85 765.74,933.24 770.17,987.15 
			764.18,966.22 767.64,987.9 748.74,937.01 763.66,989.19 753.6,969.69 761.19,990.15 732.74,944.08 757.69,992.4 743.94,975.15 
			755.36,993.64 718.6,954.02 752.3,996.31 735.7,982.24 750.74,998.45 706.64,966.54 747.9,1001.51 728.87,990.96 746.64,1003.83 
			697.29,981.25 744.78,1007.55 723.86,1000.88 743.64,1009.93 691.03,997.45 742.76,1013.96 720.92,1011.47 742.17,1016.51 
			688.05,1014.48 741.86,1020.6 720.09,1022.39 742.05,1023.21 688.43,1031.76 742.34,1027.33 721.41,1033.32 743.09,1029.86 
			692.2,1048.76 744.38,1033.84 724.89,1043.9 745.34,1036.3 699.27,1064.76 747.6,1039.81 730.35,1053.55 748.83,1042.14 
			709.22,1078.9 751.5,1045.2 737.44,1061.8 753.65,1046.75 721.73,1090.86 756.7,1049.6 746.16,1068.63 759.02,1050.86 
			736.44,1100.21 762.75,1052.72 756.07,1073.64 765.12,1053.86 752.65,1106.47 769.15,1054.74 766.67,1076.58 771.71,1055.33 
			769.67,1109.45 775.79,1055.64 777.58,1077.4 778.41,1055.45 786.95,1109.06 782.53,1055.16 788.51,1076.08 785.05,1054.41 
			803.95,1105.29 789.03,1053.11 799.09,1072.61 791.5,1052.16 819.95,1098.22 795,1049.9 808.75,1067.15 797.33,1048.67 
			834.09,1088.28 800.39,1046 816.99,1060.06 801.95,1043.85 846.05,1075.76 804.79,1040.8 823.82,1051.34 806.05,1038.48 
			855.4,1061.05 807.91,1034.75 828.83,1041.42 809.05,1032.37 861.66,1044.85 		"/>
		<g>
			<g>
				<path class="st4" d="M776.39,993.08c0,0-12.38-35.75,0-36C788.11,956.85,776.39,993.08,776.39,993.08z"/>
				<path class="st4" d="M787.25,995.3c0,0,2.41-37.75,13.92-33.2C812.07,966.42,787.25,995.3,787.25,995.3z"/>
				<path class="st4" d="M796.41,1001.55c0,0,16.82-33.88,25.68-25.23C830.47,984.52,796.41,1001.55,796.41,1001.55z"/>
				<path class="st4" d="M802.43,1010.86c0,0,28.62-24.74,33.44-13.33C840.43,1008.32,802.43,1010.86,802.43,1010.86z"/>
				<path class="st4" d="M804.39,1021.76c0,0,35.96-11.74,35.99,0.64C840.41,1034.13,804.39,1021.76,804.39,1021.76z"/>
				<path class="st4" d="M801.97,1032.58c0,0,37.7,3.08,32.94,14.52C830.41,1057.92,801.97,1032.58,801.97,1032.58z"/>
				<path class="st4" d="M795.56,1041.62c0,0,33.58,17.43,24.76,26.13C811.99,1075.98,795.56,1041.62,795.56,1041.62z"/>
				<path class="st4" d="M786.15,1047.48c0,0,24.22,29.06,12.73,33.67C788.01,1085.52,786.15,1047.48,786.15,1047.48z"/>
				<path class="st4" d="M775.21,1049.24c0,0,11.1,36.17-1.29,35.97C762.21,1085.04,775.21,1049.24,775.21,1049.24z"/>
				<path class="st4" d="M764.44,1046.64c0,0-3.76,37.64-15.1,32.68C738.6,1074.61,764.44,1046.64,764.44,1046.64z"/>
				<path class="st4" d="M755.51,1040.06c0,0-18.03,33.26-26.57,24.29C720.87,1055.87,755.51,1040.06,755.51,1040.06z"/>
				<path class="st4" d="M749.83,1030.55c0,0-29.49,23.7-33.9,12.12C711.76,1031.72,749.83,1030.55,749.83,1030.55z"/>
				<path class="st4" d="M748.26,1019.58c0,0-36.36,10.45-35.95-1.93C712.71,1005.93,748.26,1019.58,748.26,1019.58z"/>
				<path class="st4" d="M751.06,1008.85c0,0-37.57-4.43-32.4-15.69C723.55,982.52,751.06,1008.85,751.06,1008.85z"/>
				<path class="st4" d="M757.79,1000.05c0,0-32.93-18.62-23.81-27C742.61,965.12,757.79,1000.05,757.79,1000.05z"/>
				<path class="st4" d="M767.4,994.53c0,0-23.17-29.91-11.51-34.11C766.92,956.45,767.4,994.53,767.4,994.53z"/>
			</g>
		</g>
		<path class="st0" d="M776.35,1145.76c-68.71,0-124.61-55.9-124.61-124.61c0-68.71,55.9-124.61,124.61-124.61
			s124.61,55.9,124.61,124.61C900.96,1089.86,845.06,1145.76,776.35,1145.76z M776.35,920.48c-55.51,0-100.67,45.16-100.67,100.67
			c0,55.51,45.16,100.68,100.67,100.68s100.67-45.16,100.67-100.68C877.02,965.64,831.86,920.48,776.35,920.48z"/>
	</g>
</g>
</svg>